name Walk6.mot
datacolumns 19
datarows 22
range 1.51400000 1.53500000
endheader

                time	   L_ground_force_vx	   L_ground_force_vy	   L_ground_force_vz	   L_ground_force_px	   L_ground_force_py	   L_ground_force_pz	   R_ground_force_vx	   R_ground_force_vy	   R_ground_force_vz	   R_ground_force_px	   R_ground_force_py	   R_ground_force_pz	   L_ground_torque_x	   L_ground_torque_y	   L_ground_torque_z	   R_ground_torque_x	   R_ground_torque_y	   R_ground_torque_z	
          1.51400000	          3.02316314	        675.16241258	         44.27107487	         -0.26141243	          0.00000000	         -0.11142707	         -0.06689254	          0.53835299	          0.00662232	          0.00007342	          0.00000000	          0.00002420	          0.00000000	          0.51444753	          0.00000000	          0.00000000	         -0.00162371	          0.00000000	
          1.51500000	          3.42656958	        676.37756973	         44.33935339	         -0.26091947	          0.00000000	         -0.11145296	         -0.06777381	          0.52477015	          0.00681908	          0.00006335	          0.00000000	          0.00001992	          0.00000000	          0.52582907	          0.00000000	          0.00000000	         -0.00096746	          0.00000000	
          1.51600000	          3.83519894	        677.61690777	         44.40503160	         -0.26042902	          0.00000000	         -0.11147707	         -0.06845707	          0.50775787	          0.00700595	          0.00005209	          0.00000000	          0.00001516	          0.00000000	          0.53697270	          0.00000000	          0.00000000	         -0.00024623	          0.00000000	
          1.51700000	          4.24911315	        678.88068126	         44.46801334	         -0.25994124	          0.00000000	         -0.11149935	         -0.06892110	          0.48706773	          0.00718126	          0.00003957	          0.00000000	          0.00000990	          0.00000000	          0.54786923	          0.00000000	          0.00000000	          0.00054303	          0.00000000	
          1.51800000	          4.66837567	        680.16910552	         44.52820791	         -0.25945626	          0.00000000	         -0.11151976	         -0.06914361	          0.46244342	          0.00734320	          0.00002571	          0.00000000	          0.00000411	          0.00000000	          0.55850909	          0.00000000	          0.00000000	          0.00140340	          0.00000000	
          1.51900000	          5.09305107	        681.48235803	         44.58552976	         -0.25897422	          0.00000000	         -0.11153826	         -0.06910124	          0.43362104	          0.00748985	          0.00001047	          0.00000000	         -0.00000224	          0.00000000	          0.56888261	          0.00000000	          0.00000000	          0.00233791	          0.00000000	
          1.52000000	          5.52320411	        682.82058089	         44.63989822	         -0.25849525	          0.00000000	         -0.11155484	         -0.06876956	          0.40032952	          0.00761921	         -0.00000623	          0.00000000	         -0.00000917	          0.00000000	          0.57898052	          0.00000000	          0.00000000	          0.00334962	          0.00000000	
          1.52100000	          5.95889821	        684.18388392	         44.69123770	         -0.25801949	          0.00000000	         -0.11156944	         -0.06812304	          0.36229107	          0.00772912	         -0.00002446	          0.00000000	         -0.00001671	          0.00000000	          0.58879436	          0.00000000	          0.00000000	          0.00444150	          0.00000000	
          1.52200000	          6.40019365	        685.57234738	         44.73947820	         -0.25754708	          0.00000000	         -0.11158205	         -0.06713510	          0.31922166	          0.00781732	         -0.00004429	          0.00000000	         -0.00002487	          0.00000000	          0.59831690	          0.00000000	          0.00000000	          0.00561650	          0.00000000	
          1.52300000	          6.84714585	        686.98602319	         44.78455581	         -0.25707814	          0.00000000	         -0.11159262	         -0.06577809	          0.27083166	          0.00788143	         -0.00006577	          0.00000000	         -0.00003369	          0.00000000	          0.60754229	          0.00000000	          0.00000000	          0.00687749	          0.00000000	
          1.52400000	          7.29980435	        688.42493395	         44.82641315	         -0.25661281	          0.00000000	         -0.11160114	         -0.06402332	          0.21682652	          0.00791895	         -0.00008898	          0.00000000	         -0.00004319	          0.00000000	          0.61646620	          0.00000000	          0.00000000	          0.00822725	          0.00000000	
          1.52500000	          7.75821246	        689.88907037	         44.86499936	         -0.25615122	          0.00000000	         -0.11160758	         -0.06184109	          0.15690747	          0.00792726	         -0.00011398	          0.00000000	         -0.00005340	          0.00000000	          0.62508566	          0.00000000	          0.00000000	          0.00966847	          0.00000000	
          1.52600000	          8.22240756	        691.37838774	         44.90026973	         -0.25569349	          0.00000000	         -0.11161191	         -0.05920067	          0.09077242	          0.00790359	         -0.00014082	          0.00000000	         -0.00006434	          0.00000000	          0.63339898	          0.00000000	          0.00000000	          0.01120368	          0.00000000	
          1.52700000	          8.69242154	        692.89280269	         44.93218497	         -0.25523973	          0.00000000	         -0.11161410	         -0.05607040	          0.01811689	          0.00784509	         -0.00016959	          0.00000000	         -0.00007602	          0.00000000	          0.64140539	          0.00000000	          0.00000000	          0.01283528	          0.00000000	
          1.52800000	          9.16828125	        694.43219057	         44.96071033	         -0.25479009	          0.00000000	         -0.11161415	         -0.05241768	         -0.06136497	          0.00774875	         -0.00020032	          0.00000000	         -0.00008848	          0.00000000	          0.64910480	          0.00000000	          0.00000000	          0.01456548	          0.00000000	
          1.52900000	          9.65000875	        695.99638358	         44.98581451	         -0.25434466	          0.00000000	         -0.11161202	         -0.04820905	         -0.14797926	          0.00761145	         -0.00023308	          0.00000000	         -0.00010173	          0.00000000	          0.65649743	          0.00000000	          0.00000000	          0.01639632	          0.00000000	
          1.53000000	         10.13762156	        697.58516936	         45.00746863	         -0.25390357	          0.00000000	         -0.11160770	         -0.04341023	         -0.24203105	          0.00742997	         -0.00026793	          0.00000000	         -0.00011579	          0.00000000	          0.66358368	          0.00000000	          0.00000000	          0.01832956	          0.00000000	
          1.53100000	         10.63113309	        699.19828964	         45.02564519	         -0.25346693	          0.00000000	         -0.11160118	         -0.03798621	         -0.34382303	          0.00720093	         -0.00030491	          0.00000000	         -0.00013068	          0.00000000	          0.67036415	          0.00000000	          0.00000000	          0.02036676	          0.00000000	
          1.53200000	         11.13055324	        700.83543906	         45.04031732	         -0.25303484	          0.00000000	         -0.11159244	         -0.03190127	         -0.45365409	          0.00692087	         -0.00034406	          0.00000000	         -0.00014641	          0.00000000	          0.67683978	          0.00000000	          0.00000000	          0.02250915	          0.00000000	
          1.53300000	         11.63588926	        702.49626364	         45.05145826	         -0.25260741	          0.00000000	         -0.11158147	         -0.02511915	         -0.57181764	          0.00658620	         -0.00038543	          0.00000000	         -0.00016300	          0.00000000	          0.68301194	          0.00000000	          0.00000000	          0.02475766	          0.00000000	
          1.53400000	         12.14714677	        704.18035863	         45.05904103	         -0.25218474	          0.00000000	         -0.11156826	         -0.01760306	         -0.69859999	          0.00619324	         -0.00042905	          0.00000000	         -0.00018046	          0.00000000	          0.68888241	          0.00000000	          0.00000000	          0.02711286	          0.00000000	
          1.53500000	         12.66433092	        705.88726569	         45.06303814	         -0.25176690	          0.00000000	         -0.11155280	         -0.00931583	         -0.83427845	          0.00573818	         -0.00047496	          0.00000000	         -0.00019879	          0.00000000	          0.69445333	          0.00000000	          0.00000000	          0.02957495	          0.00000000	
